HIERARCHY
ROOT Hips
{
	OFFSET 0.000000 0.000000 0.000000
	CHANNELS 6 Xposition Yposition Zposition Xrotation Yrotation Zrotation
	JOINT LeftUpLeg_virtual
	{
		OFFSET 0.000000 0.000000 0.000000
		CHANNELS 3 Xrotation Yrotation Zrotation
		JOINT LeftUpLeg
		{
			OFFSET 13.026900 -6.336304 -1.092800
			CHANNELS 3 Xrotation Yrotation Zrotation
			JOINT LeftLeg
			{
				OFFSET 0.524474 -46.096886 9.782700
				CHANNELS 3 Xrotation Yrotation Zrotation
				JOINT LeftFoot
				{
					OFFSET -0.524474 -53.427422 -12.948200
					CHANNELS 3 Xrotation Yrotation Zrotation
					JOINT LeftToeBase
					{
						OFFSET 0.192200 -14.009700 16.364100
						CHANNELS 3 Xrotation Yrotation Zrotation
						JOINT LeftToe_End
						{
							OFFSET -1.784700 -0.561700 9.474800
							CHANNELS 3 Xrotation Yrotation Zrotation
							End Site
							{
								OFFSET 0 0 0
							}
						}
					}
				}
			}
		}
	}
	JOINT RightUpLeg_virtual
	{
		OFFSET 0.000000 0.000000 0.000000
		CHANNELS 3 Xrotation Yrotation Zrotation
		JOINT RightUpLeg
		{
			OFFSET -12.883000 -6.336304 -1.092800
			CHANNELS 3 Xrotation Yrotation Zrotation
			JOINT RightLeg
			{
				OFFSET -0.524587 -46.096825 9.782800
				CHANNELS 3 Xrotation Yrotation Zrotation
				JOINT RightFoot
				{
					OFFSET 0.524587 -53.427383 -12.948300
					CHANNELS 3 Xrotation Yrotation Zrotation
					JOINT RightToeBase
					{
						OFFSET -0.192200 -14.009700 16.364100
						CHANNELS 3 Xrotation Yrotation Zrotation
						JOINT RightToe_End
						{
							OFFSET 1.784700 -0.561700 9.474800
							CHANNELS 3 Xrotation Yrotation Zrotation
							End Site
							{
								OFFSET 0 0 0
							}
						}
					}
				}
			}
		}
	}
	JOINT Spine_virtual
	{
		OFFSET 0.000000 0.000000 0.000000
		CHANNELS 3 Xrotation Yrotation Zrotation
		JOINT Spine
		{
			OFFSET 0.072000 7.257294 -0.789700
			CHANNELS 3 Xrotation Yrotation Zrotation
			JOINT Spine1
			{
				OFFSET 0.000000 12.508769 -0.658067
				CHANNELS 3 Xrotation Yrotation Zrotation
				JOINT Spine1_split
				{
					OFFSET 0.000000 12.508769 -0.658067
					CHANNELS 3 Xrotation Yrotation Zrotation
					JOINT Spine2
					{
						OFFSET 0.000000 12.508769 -0.658067
						CHANNELS 3 Xrotation Yrotation Zrotation
						JOINT Neck_virtual
						{
							OFFSET 0.000000 0.000000 0.000000
							CHANNELS 3 Xrotation Yrotation Zrotation
							JOINT Neck
							{
								OFFSET 0.000000 14.033295 7.520400
								CHANNELS 3 Xrotation Yrotation Zrotation
								JOINT Head
								{
									OFFSET 0.000000 8.198502 5.703100
									CHANNELS 3 Xrotation Yrotation Zrotation
									JOINT HeadTop_End
									{
										OFFSET 0.000000 17.760803 13.332701
										CHANNELS 3 Xrotation Yrotation Zrotation
										End Site
										{
											OFFSET 0 0 0
										}
									}
								}
							}
						}
						JOINT LeftShoulder_virtual
						{
							OFFSET 0.000000 0.000000 0.000000
							CHANNELS 3 Xrotation Yrotation Zrotation
							JOINT LeftShoulder
							{
								OFFSET 6.292450 5.785301 -0.669000
								CHANNELS 3 Xrotation Yrotation Zrotation
								JOINT LeftShoulder_split
								{
									OFFSET 6.292450 5.785301 -0.669000
									CHANNELS 3 Xrotation Yrotation Zrotation
									JOINT LeftArm
									{
										OFFSET 13.907140 -6.093903 1.965100
										CHANNELS 3 Xrotation Yrotation Zrotation
										JOINT LeftForeArm
										{
											OFFSET 34.140198 0.000000 0.000000
											CHANNELS 3 Xrotation Yrotation Zrotation
											JOINT LeftHand
											{
												OFFSET 40.960209 0.000000 0.000000
												CHANNELS 3 Xrotation Yrotation Zrotation
												End Site
												{
													OFFSET 0 0 0
												}
											}
										}
									}
								}
							}
						}
						JOINT RightShoulder_virtual
						{
							OFFSET 0.000000 0.000000 0.000000
							CHANNELS 3 Xrotation Yrotation Zrotation
							JOINT RightShoulder
							{
								OFFSET -6.292450 5.785301 -0.669000
								CHANNELS 3 Xrotation Yrotation Zrotation
								JOINT RightShoulder_split
								{
									OFFSET -6.292450 5.785301 -0.669000
									CHANNELS 3 Xrotation Yrotation Zrotation
									JOINT RightArm
									{
										OFFSET -13.907140 -6.093903 1.965100
										CHANNELS 3 Xrotation Yrotation Zrotation
										JOINT RightForeArm
										{
											OFFSET -34.140198 0.000000 0.000000
											CHANNELS 3 Xrotation Yrotation Zrotation
											JOINT RightHand
											{
												OFFSET -40.960209 0.000000 0.000000
												CHANNELS 3 Xrotation Yrotation Zrotation
												End Site
												{
													OFFSET 0 0 0
												}
											}
										}
									}
								}
							}
						}
					}
				}
			}
		}
	}
}
MOTION
Frames: 8
Frame Time: 0.03333333
0.295753 117.674934 -0.697645 0.000000 0.000000 0.000000 -3.415359 3.999790 -5.373529 -24.801030 -11.172146 1.531947 48.382779 -1.235210 -0.097430 18.368201 2.947909 10.313002 -24.999032 0.001882 0.001037 0.000000 0.000000 0.000000 -3.415359 3.999790 -5.373529 -11.322410 -10.883135 9.969641 27.335267 0.537869 -0.076453 16.685794 -0.619778 -7.576777 -29.488857 1.225798 0.108400 0.000000 0.000000 0.000000 -3.415359 3.999790 -5.373529 7.493723 -0.197744 1.396287 -2.114713 -0.634067 1.955412 0.000000 0.000000 0.000000 0.000000 0.000000 0.000000 -2.107416 -0.526124 1.991271 -6.842736 -2.682116 0.508893 2.526785 0.702883 0.466853 0.000000 0.000000 0.000000 -2.107416 -0.526124 1.991271 1.091369 1.577360 -3.543031 0.000000 0.000000 0.000000 -1.207960 1.492937 -78.012761 20.698675 -13.799232 -0.079262 0.000000 0.000000 0.000000 -2.107416 -0.526124 1.991271 0.487466 5.285027 4.298000 0.000000 0.000000 0.000000 -7.282518 4.832117 74.584839 13.988554 13.383129 -4.466992 0.000000 0.000000 0.000000 
0.610314 119.017021 2.510754 0.000000 0.000000 0.000000 -2.706367 2.885682 -4.132069 -26.887378 -8.340102 0.485880 41.141409 -1.042841 -0.079568 18.314295 2.704527 9.124617 -25.000104 0.013627 0.025211 0.000000 0.000000 0.000000 -2.706367 2.885682 -4.132069 -8.569131 -11.755832 8.268496 24.715644 3.197392 0.079939 15.835626 -0.837472 -7.695807 -29.284457 1.167298 0.237875 0.000000 0.000000 0.000000 -2.706367 2.885682 -4.132069 6.864129 0.142865 0.795591 -2.080431 -0.313499 1.675652 0.000000 0.000000 0.000000 0.000000 0.000000 0.000000 -2.058833 -0.215386 1.707925 -6.824233 -1.991731 0.148009 2.570388 1.192967 0.558138 0.000000 0.000000 0.000000 -2.058833 -0.215386 1.707925 1.161757 2.620607 -4.138581 0.000000 0.000000 0.000000 -0.675547 1.681686 -77.754020 23.741085 -14.201290 0.898215 0.000000 0.000000 0.000000 -2.058833 -0.215386 1.707925 0.521029 5.806647 4.065538 0.000000 0.000000 0.000000 -8.045852 5.987354 74.740370 12.972011 13.640118 -3.836571 0.000000 0.000000 0.000000 
0.950176 119.990189 5.617079 0.000000 0.000000 0.000000 -2.037256 1.877232 -3.379266 -28.355272 -4.523252 -0.092158 33.142380 -2.796444 -0.205091 20.306962 3.794369 8.504633 -24.998836 0.025073 0.048789 0.000000 0.000000 0.000000 -2.037256 1.877232 -3.379266 -5.896698 -14.181163 7.151112 22.322919 7.117950 0.383165 14.978052 -0.829785 -9.083637 -28.504075 1.110611 0.760479 0.000000 0.000000 0.000000 -2.037256 1.877232 -3.379266 6.497951 0.464570 0.976031 -2.164171 -0.087648 1.327397 0.000000 0.000000 0.000000 0.000000 0.000000 0.000000 -2.103373 -0.002019 1.355804 -6.706181 -1.103626 -0.543467 2.558714 1.719133 0.758874 0.000000 0.000000 0.000000 -2.103373 -0.002019 1.355804 1.326057 3.845517 -5.238573 0.000000 0.000000 0.000000 -0.005115 2.080357 -77.146481 25.494451 -14.592177 1.554045 0.000000 0.000000 0.000000 -2.103373 -0.002019 1.355804 0.568234 6.440959 3.658638 0.000000 0.000000 0.000000 -8.430288 8.119882 74.878285 10.227167 15.268106 -3.522355 0.000000 0.000000 0.000000 
1.445004 120.278511 8.625156 0.000000 0.000000 0.000000 -1.055687 0.493434 -2.687683 -30.342204 0.452055 0.030556 25.804485 -2.317842 -0.149180 22.372894 1.908735 4.168656 -25.008225 0.035683 0.070645 0.000000 0.000000 0.000000 -1.055687 0.493434 -2.687683 -4.711622 -16.789168 5.792259 21.502204 10.729141 0.599122 13.961404 -0.510742 -9.748955 -28.522971 1.059030 0.757672 0.000000 0.000000 0.000000 -1.055687 0.493434 -2.687683 6.125744 0.910933 1.493016 -2.415187 0.285826 0.861850 0.000000 0.000000 0.000000 0.000000 0.000000 0.000000 -2.279706 0.356749 0.875466 -6.516888 -0.113615 -1.146702 2.435894 2.406444 0.840325 0.000000 0.000000 0.000000 -2.279706 0.356749 0.875466 1.561004 4.901431 -6.501986 0.000000 0.000000 0.000000 0.928781 2.852960 -76.443703 25.950568 -15.000414 2.001411 0.000000 0.000000 0.000000 -2.279706 0.356749 0.875466 0.610001 6.612299 3.312221 0.000000 0.000000 0.000000 -8.250057 11.492346 74.614769 8.393940 17.168708 -3.295284 0.000000 0.000000 0.000000 
1.747067 120.425507 11.707678 0.000000 0.000000 0.000000 -0.585166 -0.539302 -2.630272 -31.206137 4.217320 0.958476 18.565439 1.128550 0.121653 24.519402 -1.243227 -1.848027 -25.054759 0.039515 0.078552 0.000000 0.000000 0.000000 -0.585166 -0.539302 -2.630272 -2.469370 -19.759380 5.355466 20.332980 14.012875 0.851729 12.805152 -0.154848 -10.949697 -28.667677 1.001310 1.596422 0.000000 0.000000 0.000000 -0.585166 -0.539302 -2.630272 6.230992 1.326422 1.344965 -2.713911 0.301719 1.515031 0.000000 0.000000 0.000000 0.000000 0.000000 0.000000 -2.581278 0.432835 1.513154 -6.177116 1.402243 -2.943447 2.310208 3.063961 1.261983 0.000000 0.000000 0.000000 -2.581278 0.432835 1.513154 2.076389 6.498105 -8.978073 0.000000 0.000000 0.000000 2.173338 3.162896 -75.453578 25.663947 -15.542393 2.187247 0.000000 0.000000 0.000000 -2.581278 0.432835 1.513154 0.968729 7.637008 0.422386 0.000000 0.000000 0.000000 -8.482534 11.768442 76.022860 9.287158 19.290433 -3.919866 0.000000 0.000000 0.000000 
1.993494 120.281754 14.729300 0.000000 0.000000 0.000000 -0.388496 -0.825815 -2.812275 -31.213585 3.374125 0.994882 11.778244 3.185122 0.022420 27.454169 -2.211735 -4.717524 -25.202129 0.030340 0.059727 0.000000 0.000000 0.000000 -0.388496 -0.825815 -2.812275 -0.102950 -21.592779 5.550677 19.684265 14.860642 0.900241 10.775948 0.021851 -12.775462 -29.100581 0.941621 3.240817 0.000000 0.000000 0.000000 -0.388496 -0.825815 -2.812275 6.718385 1.497746 0.264336 -3.208120 -0.247009 3.170755 0.000000 0.000000 0.000000 0.000000 0.000000 0.000000 -3.188771 0.045642 3.159575 -5.411294 3.255761 -5.241168 2.023084 3.946270 1.433077 0.000000 0.000000 0.000000 -3.188771 0.045642 3.159575 2.835393 8.745192 -12.139155 0.000000 0.000000 0.000000 3.471255 3.542356 -74.801001 26.017440 -15.657995 2.050269 0.000000 0.000000 0.000000 -3.188771 0.045642 3.159575 1.385070 9.746100 -3.580973 0.000000 0.000000 0.000000 -8.462177 9.876563 78.056440 10.268710 20.394668 -4.235273 0.000000 0.000000 0.000000 
2.245302 119.667755 18.239643 0.000000 0.000000 0.000000 -0.227636 -0.411395 -3.372779 -31.411145 5.625587 0.840331 8.319938 -0.534535 -0.263847 33.135386 -3.010842 -4.313950 -25.417506 0.001774 0.000564 0.000000 0.000000 0.000000 -0.227636 -0.411395 -3.372779 2.494551 -21.284615 6.521501 19.469251 12.623227 0.710940 7.445278 -0.058664 -14.585469 -29.545165 0.864391 3.878187 0.000000 0.000000 0.000000 -0.227636 -0.411395 -3.372779 8.374520 1.218863 1.225341 -4.428562 -0.841838 2.670545 0.000000 0.000000 0.000000 0.000000 0.000000 0.000000 -4.391910 -0.486678 2.610559 -6.338900 3.493517 -2.006121 3.383295 5.855995 -1.061604 0.000000 0.000000 0.000000 -4.391910 -0.486678 2.610559 2.354687 13.088306 -9.808243 0.000000 0.000000 0.000000 5.125871 2.817132 -77.012275 26.986810 -15.727931 1.865746 0.000000 0.000000 0.000000 -4.391910 -0.486678 2.610559 1.570655 10.149910 -3.118639 0.000000 0.000000 0.000000 -8.103333 11.000786 78.111505 7.715936 21.566027 -3.226936 0.000000 0.000000 0.000000 
2.490493 118.455139 22.367617 0.000000 0.000000 0.000000 -0.054773 0.196280 -3.431578 -31.532770 8.693770 0.840730 7.638249 -5.194697 -1.684097 41.975327 -3.926521 -4.894152 -25.438102 -0.092824 -0.195556 0.000000 0.000000 0.000000 -0.054773 0.196280 -3.431578 4.874858 -20.315069 6.806289 20.046515 10.903769 0.557821 3.619800 -0.242070 -15.507332 -29.504484 0.826620 3.552724 0.000000 0.000000 0.000000 -0.054773 0.196280 -3.431578 7.430504 1.163514 0.576684 -4.027821 -1.000626 3.050759 0.000000 0.000000 0.000000 0.000000 0.000000 0.000000 -4.043318 -0.619600 3.030188 -7.198925 3.658304 -1.499532 3.713547 6.223302 -1.370684 0.000000 0.000000 0.000000 -4.043318 -0.619600 3.030188 2.295809 12.822122 -9.630622 0.000000 0.000000 0.000000 5.305733 4.107308 -77.522791 26.651342 -15.181631 1.988435 0.000000 0.000000 0.000000 -4.043318 -0.619600 3.030188 1.557805 9.742741 -3.276322 0.000000 0.000000 0.000000 -7.876887 11.200366 78.394664 6.955502 21.553739 -2.946494 0.000000 0.000000 0.000000 
